<?xml version="1.0" encoding="UTF-8"?>
<svg width="248" height="399" version="1.1" viewBox="0 0 248 399" xmlns="http://www.w3.org/2000/svg"><path d="m240 371h-1.77l-0.012-0.976c-0.0157-1.27-0.248-1.83-0.929-2.25-1.12-0.683-1.06-0.699-10.1 2.51l-8.57 3.03-0.0473-2.38c-0.0271-1.36 0.0211-2.42 0.112-2.47 0.0881-0.0537 2.76-0.861 5.94-1.79 3.18-0.933 5.78-1.74 5.78-1.78 2e-3 -0.0466-2.31-0.729-5.13-1.52-2.82-0.787-5.49-1.54-5.94-1.66l-0.806-0.235v-2.28c0-1.25 0.0548-2.28 0.122-2.28 0.29 0 17.9 6.21 19.2 6.78 3.45 1.47 3.73 1.87 3.85 5.23l0.0735 2.08h-1.77zm-4.21-33.3c-0.375 3.65-1.73 5.85-4.41 7.23-1.96 1-4.9 1.61-7.76 1.61l-1.74 7e-4v-6.79h1.06c1.47 0 3.78-0.299 4.75-0.615 1.2-0.391 1.77-0.951 2.09-2.06 0.571-1.96-0.0467-3.64-1.62-4.41l-0.942-0.462-26.7-0.0984v-7.13l13.8 0.0519c15.3 0.0574 14.5 9e-3 16.9 1.19 3.5 1.75 5.18 5.94 4.6 11.5zm-0.098-31.8c-0.581 3.21-1.66 5.29-3.96 7.58-3.32 3.32-7.06 4.78-12.8 5.02-6.71 0.267-11.7-1.31-15.2-4.86-3.32-3.32-4.71-7.77-4.23-13.6 0.212-2.59 0.667-4.33 1.64-6.29 0.683-1.37 1.06-1.87 2.5-3.33 2.42-2.44 4.69-3.68 8.22-4.51 2.15-0.503 7.82-0.633 10.2-0.235 1.93 0.317 4.22 1.02 5.61 1.73 2.43 1.23 4.98 3.53 6.2 5.59 0.852 1.44 1.64 3.78 1.89 5.56 0.249 1.82 0.202 5.69-0.0908 7.31zm-6.1-6.16c-0.738-3.13-3.36-5.6-6.95-6.53-1.94-0.506-4.67-0.694-6.84-0.471-3.63 0.371-5.73 1.2-7.64 3-1.82 1.72-2.57 3.54-2.57 6.29-3e-3 2.61 0.738 4.42 2.52 6.18 1.82 1.79 4.13 2.7 7.72 3.06 4.76 0.476 9.12-0.717 11.6-3.16 2.1-2.1 2.93-5.24 2.18-8.37zm6.19-29.8c-0.638 5.07-2.88 8.76-6.37 10.5-1.19 0.585-3.24 1.1-4.41 1.1h-0.579v-6.91l0.622-0.117c2.3-0.433 3.84-1.75 4.51-3.88 0.33-1.05 0.381-1.57 0.371-3.76-0.0134-2.82-0.29-4.06-1.19-5.37-1.01-1.46-3.06-2.06-4.57-1.33-1.51 0.726-2.11 2.2-3.48 8.36-1.36 6.12-2.16 8.23-3.84 9.98-0.988 1.04-2.44 1.86-3.88 2.21-1.33 0.32-4.39 0.275-5.6-0.0829-3.26-0.966-5.83-3.44-6.96-6.67-0.61-1.75-0.929-3.92-0.929-6.33 0-3.63 0.731-6.37 2.35-8.85 1.85-2.82 4.53-4.41 8.04-4.76l0.809-0.081-0.0916 6.98-0.848 0.194c-1.11 0.257-1.73 0.598-2.49 1.39-2.24 2.31-2.43 7.99-0.352 10.4 1.56 1.82 4.31 1.79 5.39-0.0639 0.649-1.1 0.876-1.87 2.22-7.44 1.37-5.66 1.91-7.29 2.97-8.91 1.54-2.34 4.11-3.61 7.37-3.61 5.44 2e-3 9.43 3.58 10.7 9.58 0.335 1.59 0.472 5.73 0.248 7.5zm0.0592-175c-0.51 4.93-2.58 8.34-6.08 10-2.94 1.4-4.35 1.53-18.2 1.53l-11 4e-3v-7.47l11.8-3e-3c12.8-3e-3 13.3-0.029 15-0.985 1.76-0.987 2.55-2.66 2.56-5.46 9e-3 -2.57-0.593-4.07-2.08-5.21-1.69-1.28-3.05-1.41-16.2-1.41l-10.9-0.0021v-7.32l12.4 0.0626c11.9 0.0599 12.5 0.0779 14 0.419 2.39 0.544 3.96 1.38 5.49 2.92 1.97 1.97 2.97 4.26 3.37 7.74 0.166 1.45 0.195 3.88 0.0618 5.18zm-0.064-33.1c-0.841 6.73-4.56 10.9-10.1 11.5l-1.28 0.116v-6.97l0.622-0.117c2.59-0.486 3.99-1.83 4.66-4.51 0.306-1.21 0.348-1.75 0.275-3.55-0.172-4.22-1.46-6.3-4.09-6.57-0.749-0.0773-1.08-0.0216-1.73 0.291-1.5 0.726-2.1 2.18-3.48 8.36-1.37 6.15-2.16 8.23-3.86 10-1.17 1.23-2.55 1.93-4.46 2.28-3.54 0.639-7-0.371-9.36-2.74-1.8-1.81-2.74-3.73-3.26-6.77-0.341-1.96-0.338-5.43 7e-3 -7.25 0.762-4.02 3.03-7.39 6-8.88 1.34-0.672 2.2-0.922 3.76-1.09l1.17-0.124v7.02l-0.765 0.105c-2.91 0.398-4.77 3.66-4.43 7.74 0.214 2.58 1.2 4.41 2.74 5.11 1.51 0.685 3.31 0.188 4.08-1.12 0.639-1.09 0.984-2.25 2.27-7.65 1.58-6.61 2.18-8.13 3.9-9.9 2.49-2.56 7.26-3.16 10.9-1.37 3.15 1.53 5.25 4.46 6.11 8.57 0.338 1.61 0.471 5.73 0.244 7.55zm-0.638 322c-0.331 0.929-0.619 1.35-1.47 2.11l-0.509 0.459 1.95 0.0138v4.24h-22.4v-4.24h7.87l-0.672-0.576c-0.37-0.316-0.899-0.984-1.18-1.48-0.473-0.854-0.504-1.02-0.504-2.78 0-1.66 0.0483-1.97 0.452-2.83 0.866-1.85 2.46-3.11 4.8-3.81 1.24-0.368 4.42-0.415 5.94-0.0875 2.48 0.536 4.63 2.07 5.47 3.88 0.602 1.3 0.717 3.74 0.238 5.09zm-3.49-2.39c-0.314-0.734-1.03-1.38-2.06-1.86-0.726-0.334-1.11-0.389-2.71-0.383-2.16 9e-3 -3.29 0.379-4.15 1.37-1.54 1.75-0.877 4.53 1.29 5.43 1.85 0.774 4.59 0.627 6.18-0.332 1.48-0.894 2.1-2.7 1.44-4.23zm-13.9-134h-17.3v-25.5h6.11v18.3h7.3v-16.8h6.11v16.8h8.82v-19.2h6.28v26.3zm0-31.9h-17.3v-24.6h6.11v17.5l7.89-0.0913 0.0883-15.4h5.93l0.0882 15.4 14.5 0.0884v7.13zm0-42.9h-17.3v-8.41c0-9.49 0.052-10 1.19-12.4 0.793-1.63 1.7-2.71 2.99-3.57 2.04-1.36 4.99-1.91 8.54-1.6 4.23 0.371 6.65 1.85 8.14 4.98 0.959 2 1.06 2.77 1.18 8.5l0.104 5.26 12.5 0.0891v7.13zm-1.47-15.7c-0.389-1.39-1.45-2.5-2.76-2.88-1.81-0.532-4.35-0.249-5.43 0.604-0.654 0.514-1.18 1.4-1.45 2.46-0.189 0.725-0.255 1.93-0.255 4.68v3.7h10.2v-3.76c0-3.01-0.057-3.97-0.286-4.78zm1.47-16.4h-17.3l6e-3 -9.29c6e-3 -10.2 0.072-11 0.976-13 0.99-2.12 3.36-4.11 5.8-4.88 1.33-0.414 3.86-0.492 5.26-0.162 2.56 0.601 4.57 2.06 5.5 3.97l0.481 0.983 0.492-0.899c0.598-1.09 1.19-1.74 2.09-2.27 1.31-0.775 2.44-0.951 6.87-1.07 3.87-0.108 4.21-0.143 4.96-0.509 0.445-0.216 0.887-0.539 0.982-0.716 0.11-0.207 0.355-0.322 0.679-0.322h0.506l-0.0909 8.05-1.27 0.311c-0.901 0.22-2.39 0.352-5.09 0.453-4.39 0.164-5.27 0.349-6.09 1.28-0.917 1.04-1.04 1.85-1.04 6.73v4.38h13.6v6.96h-17.3zm-2.29-17.1c-0.303-1.43-0.876-2.22-2.05-2.81-1.61-0.817-4.55-0.46-5.79 0.704-0.204 0.191-0.548 0.741-0.766 1.22-0.385 0.852-0.396 1-0.396 5.87v5.01l4.41 0.0454c2.43 0.0249 4.51 9e-3 4.62-0.0371 0.329-0.126 0.295-8.43-0.041-10zm19.4-81.9c-0.119 0-7.89-2.75-17.3-6.1l-17.1-6.09-0.0455-4.17c-0.0248-2.29-0.0152-4.17 0.0215-4.17s7.73-2.71 17.1-6.02c9.36-3.31 17.1-6.02 17.3-6.02 0.173 0 0.22 0.821 0.22 3.87v3.87l-7.13 2.28 0.0889 12.8 6.96 2.24 0.0458 3.76c0.0359 2.95 0 3.76-0.17 3.76zm-13-20.6c-0.277 0-12.9 4.09-13.1 4.23-0.104 0.0979 12.7 4.42 13.1 4.42 0.0636 0 0.116-1.95 0.116-4.33 0-2.92-0.0582-4.33-0.179-4.33zm-77.4 370h-45.7v-384h91.4v384zm23.5-130c-1.55-7.04-5.21-11.2-10.9-12.5-1.4-0.319-4.33-0.379-5.69-0.115-3.84 0.743-7.26 3.82-9.09 8.15-0.275 0.653-1.15 3.73-1.94 6.84-1.6 6.29-2.08 7.88-2.81 9.41-0.865 1.82-2.13 2.57-4.08 2.39-3.21-0.288-4.95-3.29-4.67-8.01 0.232-3.81 1.37-5.95 3.75-7.06 0.574-0.268 1.5-0.545 2.05-0.614l1-0.125 0.0452-4.67c0.0248-2.57 0.0143-4.74-0.0235-4.85-0.106-0.276-3.01 0.0115-4.41 0.436-5.43 1.65-8.92 6.41-9.97 13.6-0.113 0.782-0.208 2.52-0.209 3.88-7e-3 6.9 2.62 12.5 7.22 15.4 3.51 2.17 8.29 2.38 11.9 0.507 2.46-1.29 4.61-3.97 5.92-7.34 0.709-1.83 1.91-5.99 2.87-9.95 1.12-4.61 2.47-7.15 4.32-8.09 1.03-0.529 2.87-0.479 4.08 0.11 2.38 1.17 3.64 4.46 3.43 9-0.155 3.36-0.937 5.51-2.61 7.19-1.23 1.23-2.45 1.83-4.25 2.09l-1.4 0.204v9.6l0.636-9.8e-4c1.17-2e-3 3.68-0.458 4.93-0.896 1.65-0.577 3.27-1.56 4.64-2.82 2.85-2.61 4.5-5.95 5.42-10.9 0.433-2.36 0.347-8.42-0.153-10.7zm-0.089-175c-1.29-4.89-3.86-8.61-7.62-11-1.79-1.17-3.05-1.75-5.3-2.46-1.6-0.502-4.6-1.06-4.88-0.911-0.07 0.0379-0.127 2.2-0.127 4.8v4.73l0.636 0.109c5.02 0.862 8.38 3.54 9.29 7.41 0.37 1.57 0.332 4.53-0.0783 6.14-1.13 4.44-4.71 7.48-10.1 8.57-5.94 1.2-12.4 0.101-16.1-2.76-1.88-1.42-3.37-3.8-3.87-6.14-0.319-1.51-0.319-4.1 8.5e-4 -5.46 0.809-3.44 3.61-6.43 6.74-7.23l0.891-0.228 0.0901-9.54h-0.49c-0.689 0-3.51 0.737-4.77 1.24-2.74 1.1-5.98 3.73-7.59 6.14-2.38 3.55-3.5 7.49-3.5 12.2 6e-3 4.85 1.09 8.65 3.54 12.4 1.16 1.78 3.71 4.37 5.48 5.54 8.8 5.84 22 5.66 30.1-0.428 4.14-3.1 7.11-7.99 7.92-13 0.112-0.7 0.232-1.39 0.265-1.53 0.0328-0.14 0.036-1.74 8e-3 -3.56-0.046-2.91-0.105-3.51-0.488-4.96zm-9.28 275h-8.82v-5.76c0-6.27 0.0755-6.99 0.889-8.53 0.555-1.05 1.08-1.54 2.46-2.23 1.5-0.755 2.96-1 9.71-1.63 1.07-0.1 2.55-0.34 3.27-0.534l1.31-0.351v-9.93l-0.82 0.405c-1.26 0.624-3.7 1.04-7.24 1.24-6.44 0.365-9.05 1.12-11.2 3.28-0.684 0.666-1.9 2.77-1.9 3.28 0 0.428-0.269 0.236-0.478-0.341-0.273-0.754-1.37-2.45-2.15-3.31-1.87-2.07-5.16-3.28-8.91-3.27-3.63 4e-3 -6.35 1.09-8.74 3.49-1.59 1.6-2.43 2.97-3.18 5.19l-0.547 1.61-0.0962 27.4h45.3v-10zm-22.4 0h-6.45v-5.47c0-3.01 0.0804-6.12 0.178-6.91 0.413-3.32 1.86-4.87 4.93-5.28 3.41-0.46 6.12 0.685 7.12 3.01 0.561 1.3 0.667 2.69 0.668 8.76l9.8e-4 5.9zm27-70.2h-4.16v24.4h-11.2v-21.8h-7.64v21.8h-9.84v-24h-8.31v33.9h45.3v-34.5zm0-82.3h-4.16v24.4h-11.2v-21.8h-7.64v21.8h-9.84v-24h-8.31v33.9h45.3v-34.5zm-0.848-13.7-4.92-1.73-0.0855-17.1 10-3.36v-5.16c0-3.23-0.061-5.14-0.163-5.1-0.0899 0.0311-10.3 3.84-22.7 8.45l-22.5 8.4 0.0806 10.3 22 8.3c12.1 4.57 22.3 8.42 22.6 8.56l0.638 0.251-0.0899-10zm-13.6-4.78c-0.63-0.23-4.34-1.55-8.24-2.93-3.9-1.38-7.09-2.59-7.11-2.67-4e-3 -0.0857 1.47-0.664 3.28-1.28 1.8-0.621 5.51-1.9 8.25-2.83l4.96-1.71v11.9zm9.8-41.7h-8.82v-5.78c0-6.41 0.121-7.46 1.02-8.88 0.576-0.908 1.88-1.82 3.28-2.3 1.22-0.419 3.54-0.766 7.41-1.1 2.8-0.246 4.4-0.517 5.47-0.924l0.467-0.177v-9.85l-0.806 0.406c-1.13 0.572-2.91 0.934-5.51 1.13-1.24 0.0929-3.25 0.245-4.45 0.338-1.21 0.0935-2.83 0.32-3.61 0.505-3.28 0.785-5.63 2.62-6.57 5.13-0.168 0.443-0.351 0.806-0.408 0.805-0.0573 0-0.408-0.592-0.779-1.31-1.89-3.67-5.52-5.65-10.4-5.69-2.52-0.0178-3.83 0.263-5.94 1.28-1.18 0.569-1.73 0.983-2.99 2.24-1.33 1.31-1.66 1.77-2.32 3.15-1.46 3.03-1.37 1.91-1.43 17.4l-0.0553 13.7h45.3v-10zm-22.4 0h-6.45l9.8e-4 -5.47c6.7e-4 -3.01 0.0741-6.11 0.163-6.88 0.303-2.64 1.5-4.39 3.46-5.07 1.19-0.413 4.22-0.418 5.56-0.0107 1.87 0.571 3.18 2.26 3.54 4.54 0.0959 0.607 0.175 3.75 0.176 7l9.8e-4 5.9zm21.4-92.8h-9.76v-18.3h19.5v-10h-45.3v10h17.3v18.3h-17.3v10h45.3v-10zm-66.8 150c-0.766 9.28-3.63 16.3-8.72 21.4-4.18 4.21-9.17 6.49-16.8 7.64-1.76 0.267-4.41 0.299-29.5 0.352l-27.6 0.0581v-17.8h26.4c22.7 0 26.6-0.0364 28.4-0.259 4.29-0.556 6.41-1.5 8.79-3.88 1.83-1.85 2.92-3.75 3.56-6.29 1.06-4.2 0.887-10.1-0.424-14.2-1.45-4.51-4.36-6.84-10.2-8.15-1.6-0.361-1.74-0.363-29.1-0.417l-27.5-0.0545v-17.8l27.7 0.054c30.4 0.0596 28.4-5e-3 33.1 1.08 11.7 2.71 19.1 11.5 21.2 24.9 0.584 3.76 0.762 9.33 0.428 13.4zm0.0806-80c-1.12 12.6-5.41 21.2-13 26.3-4.02 2.69-7.92 3.93-13 4.16l-2.5 0.108v-17.2l1.45-0.118c8.21-0.666 13-6.69 13.5-16.6 0.171-4.72-0.441-8.37-1.91-11.3-0.622-1.28-1.04-1.87-2.08-2.92-0.716-0.724-1.62-1.48-2.01-1.68-1.61-0.816-4.2-1.09-5.93-0.632-1.46 0.389-2.41 0.969-3.53 2.16-2.45 2.6-3.82 5.91-5.96 14.4-3 12-4.63 16.9-7 20.8-3.52 5.91-8.3 9.29-14.3 10.2-1.73 0.248-5.51 0.213-7.38-0.0679-9.36-1.41-16.8-9.18-19.4-20.4-0.86-3.65-1.05-5.44-1.04-9.93 0.0232-10.5 2.43-18.2 7.44-24.2 1.19-1.4 3.46-3.32 5.24-4.43 3.32-2.07 7.71-3.32 11.7-3.32l1.48-0.0019v17.1l-1.06 0.121c-0.583 0.0667-1.71 0.308-2.5 0.537-5.76 1.65-8.53 6.55-8.54 15.1-0.0042 4.68 0.978 7.62 3.34 10 1.86 1.88 3.96 2.64 6.57 2.4 2.61-0.242 4.06-1.28 5.4-3.83 1.42-2.74 2.35-5.84 5.67-19 1.93-7.67 2.53-9.57 3.83-12.1 1.38-2.73 2.69-4.63 4.49-6.5 3.62-3.78 7.29-5.73 12-6.35 1.97-0.263 7.19-0.103 8.85 0.27 3.09 0.691 5.65 1.74 7.99 3.27 6.54 4.27 10.8 12.1 12.1 22.5 0.266 2.03 0.476 9.43 0.318 11.2zm-42.2 266h-40.4l0.0646-20.3c0.0702-22.1 0.0466-21.4 1.06-25.5 3.01-12.1 12.7-19 26.1-18.6 9 0.331 16 3.98 20.3 10.6 2.14 3.32 3.44 6.89 4.14 11.5 0.229 1.47 0.291 3.75 0.354 13.1l0.0771 11.5h28.8v17.6zm-2.63-36.3c-0.88-6.71-4.06-10.1-10-10.8-3.21-0.351-6.62 0.296-8.64 1.64-1.99 1.33-3.27 3.05-4.09 5.56-0.914 2.76-1.05 4.56-1.05 13.9v8.3h24.1v-8.3c0-6.5-0.0567-8.74-0.261-10.3zm2.63-38.9h-40.4l0.0564-23.3c0.0617-25.6 0.014-24.3 1.06-28 0.541-1.88 1.95-4.85 3.14-6.63 1.13-1.7 3.76-4.34 5.43-5.45 1.53-1.02 3.58-2.07 5.09-2.59 4.22-1.46 10.5-1.57 15.1-0.252 5.64 1.63 9.3 4.64 11.9 9.75 0.514 1.03 0.988 1.89 1.05 1.91 0.0642 0.0219 0.253-0.363 0.421-0.855 1.34-3.92 4.21-6.87 8.49-8.7 2.82-1.2 6.91-1.9 12.8-2.2 2-0.1 4.56-0.262 5.68-0.361 4.32-0.379 8.13-1.29 9.8-2.35l0.805-0.511v17.8l-1.06 0.349c-2.48 0.818-4.33 1.11-9.69 1.55-9.97 0.809-13.5 1.61-16.5 3.75-2.47 1.74-3.67 4.23-4.07 8.45-0.0933 0.984-0.17 5.85-0.17 10.8l-1.49e-4 9.04h31.6v17.8zm-3.9-39.3c-0.558-5.32-2.65-8.19-6.96-9.53-1.15-0.356-1.59-0.398-4.41-0.398s-3.27 0.041-4.41 0.397c-1.81 0.566-2.74 1.11-3.9 2.33-1.15 1.19-1.82 2.47-2.41 4.57-0.375 1.34-0.383 1.54-0.435 12.7l-0.0531 11.5h22.8l-0.0032-9.97c-0.0021-5.48-0.079-10.7-0.172-11.6zm44.1-191c-0.117-0.0443-18.2-6.9-40.3-15.3l-40.1-15.2-0.0439-9.08c-0.0412-8.52-0.0254-9.09 0.255-9.24 0.361-0.191 80.2-30 80.4-30 0.0578 0 0.105 4.15 0.105 9.2v9.2l-8.7 2.95c-4.78 1.62-8.83 3.02-8.99 3.11-0.279 0.142-0.297 1.04-0.297 15.2v15l0.891 0.328c0.49 0.18 4.54 1.61 8.99 3.17l8.1 2.84v8.96c0 7.11-0.0441 8.95-0.212 8.89zm-31.2-49.6c-0.117 0.0439-6.74 2.32-14.7 5.06-7.97 2.74-14.5 4.99-14.5 5.03-0.0389 0.0302-0.0268 0.0987 0.0267 0.153 0.119 0.119 29.2 10.4 29.4 10.4 0.0895 0 0.154-4.31 0.154-10.4 0-8.23-0.0439-10.4-0.212-10.3z"/></svg>
